<?xml version="1.0" encoding="utf-8"?>
<!-- Generator: Adobe Illustrator 19.1.0, SVG Export Plug-In . SVG Version: 6.00 Build 0)  -->
<svg version="1.1" xmlns="http://www.w3.org/2000/svg" xmlns:xlink="http://www.w3.org/1999/xlink" x="0px" y="0px"
	 viewBox="0 0 780 780" style="enable-background:new 0 0 780 780;" xml:space="preserve">
<style type="text/css">
	.st0{display:none;}
	.st1{display:inline;fill:#920000;}
	.st2{fill:#920000;}
	.st3{fill:none;stroke:#FFFFFF;stroke-width:52;stroke-linejoin:round;}
	.st4{fill:#FFFFFF;}
</style>
<g id="Layer_4" class="st0">
	<path class="st1" d="M192,780h396c105.6,0,192-86.4,192-192V192C780,86.4,693.6,0,588,0H192C86.4,0,0,86.4,0,192v396
		C0,693.6,86.4,780,192,780z"/>
</g>
<g id="Layer_3">
	<rect class="st2" width="780" height="780"/>
</g>
<g id="Layer_1_copy">
	<g>
		<path class="st3" d="M131.8,567.5h425.4c118.9,0,124.9-55.1,124.9-174v38.7"/>
		<g>
			<polygon class="st4" points="252.2,670 149.7,567.5 252.2,465 175.2,465 72.7,567.5 175.2,670 			"/>
		</g>
	</g>
	<g>
		<path class="st3" d="M651.8,192.5H226.4c-118.9,0-124.9,55.1-124.9,174v-12.9"/>
		<g>
			<polygon class="st4" points="531.3,90 633.9,192.5 531.3,295 608.4,295 710.8,192.5 608.4,90 			"/>
		</g>
	</g>
</g>
</svg>
